<svg width="34" height="45" viewBox="0 0 34 45" fill="none" xmlns="http://www.w3.org/2000/svg">
<path d="M22.6227 11.2497C23.9175 10.386 24.8338 9.24452 25.2497 7.97723C25.6656 6.70994 25.5614 5.3769 24.9509 4.15551C24.3404 2.93412 23.2527 1.88228 21.8323 1.13995C20.412 0.397618 18.7265 0 17 0C15.2735 0 13.588 0.397618 12.1677 1.13995C10.7473 1.88228 9.65957 2.93412 9.0491 4.15551C8.43863 5.3769 8.33442 6.70994 8.75031 7.97723C9.1662 9.24452 10.0825 10.386 11.3773 11.2497H10.625C9.49783 11.2497 8.41683 11.5884 7.6198 12.1912C6.82277 12.794 6.375 13.6116 6.375 14.464C6.375 15.3165 6.82277 16.1341 7.6198 16.7369C8.41683 17.3397 9.49783 17.6784 10.625 17.6784H11.6875V24.107C11.6875 24.107 11.6875 24.9106 10.625 25.7141L6.32188 28.9686C3.14925 31.3681 3.64437 34.9199 6.35375 36.9642C4.66668 36.9685 3.05063 37.4783 1.85967 38.3821C0.668723 39.2858 -9.37259e-06 40.5097 0 41.7857V45H34V41.7857C34 40.5097 33.3313 39.2858 32.1403 38.3821C30.9494 37.4783 29.3333 36.9685 27.6462 36.9642C30.3535 34.9199 30.8507 31.3681 27.6781 28.9686L23.375 25.7141C22.3125 24.9106 22.3125 24.107 22.3125 24.107V17.6784H23.375C24.5022 17.6784 25.5832 17.3397 26.3802 16.7369C27.1772 16.1341 27.625 15.3165 27.625 14.464C27.625 13.6116 27.1772 12.794 26.3802 12.1912C25.5832 11.5884 24.5022 11.2497 23.375 11.2497H22.6227Z" fill="#04E3AC"/>
</svg>
