<svg width="45" height="45" viewBox="0 0 45 45" fill="none" xmlns="http://www.w3.org/2000/svg">
<path d="M9.03426 14.9973C8.87648 13.9017 8.53612 12.599 8.12813 11.0421L6.91094 6.3715L6.8884 6.28826C8.49614 4.74081 10.3254 3.44045 12.3162 2.42982L15.9948 5.21509C17.2571 6.16902 18.3165 6.9722 19.2564 7.52566C19.7478 7.81814 20.2414 8.06112 20.7576 8.2366V15.0356C20.4811 15.1645 20.2174 15.3265 19.9664 15.5215L15.6116 18.939C15.4522 19.0659 15.3016 19.2035 15.1608 19.3507L9.12217 16.7387C9.15327 16.1567 9.12531 15.573 9.03426 14.9973ZM4.59602 18.4553C3.93108 19.0267 2.99564 19.6634 1.58686 20.6174L0 21.695C0.151905 17.2683 1.61477 12.9858 4.20382 9.38851L4.83495 11.8026C5.26999 13.4742 5.55851 14.5923 5.68699 15.481C5.81096 16.327 5.75912 16.7904 5.61937 17.1639C5.48412 17.5351 5.22716 17.9131 4.59602 18.4553ZM7.42712 33.4886C8.99369 33.4886 10.3123 33.4886 11.392 33.6146C11.96 33.6821 12.5033 33.7878 13.0217 33.961L16.2112 29.7944C16.0957 29.566 15.9999 29.3281 15.9249 29.0834L14.2096 23.3981C14.1288 23.1197 14.0752 22.8342 14.0495 22.5455L7.90273 19.8907C7.5715 20.298 7.20245 20.6731 6.80049 21.0111C5.971 21.7243 4.87102 22.469 3.56366 23.3576L0.200611 25.6367C0.583697 28.3963 1.48207 31.0597 2.84913 33.4886H7.42712ZM22.0582 18.1741C22.1694 18.0846 22.3076 18.0354 22.4504 18.0346C22.5872 18.0346 22.7186 18.0811 22.8449 18.1741L27.1997 21.5893C27.3199 21.6823 27.4033 21.8068 27.4499 21.9628C27.4956 22.1146 27.4956 22.2766 27.4499 22.4285L25.7413 28.1115C25.6996 28.2563 25.6147 28.385 25.4979 28.4805C25.3849 28.5735 25.2431 28.6244 25.0967 28.6245H19.8064C19.6597 28.6238 19.5178 28.572 19.4052 28.4782C19.2888 28.3834 19.2039 28.2555 19.1617 28.1115L17.4509 22.4285C17.4052 22.2766 17.4052 22.1146 17.4509 21.9628C17.4943 21.8152 17.5825 21.6847 17.7034 21.5893L22.0582 18.1741ZM25.6286 7.5954C26.5798 7.0622 27.6573 6.28151 28.9376 5.35683L32.8596 2.51756C34.8013 3.5246 36.5857 4.80847 38.1567 6.32875L36.926 11.0421C36.5202 12.599 36.1799 13.9017 36.0198 14.9973C35.9294 15.5701 35.8992 16.1507 35.9297 16.7297L29.7468 19.3552C29.6041 19.2054 29.4512 19.0656 29.2892 18.9367L24.9344 15.5193C24.6895 15.3274 24.4232 15.1644 24.141 15.0333V8.26135C24.6504 8.09936 25.1418 7.86763 25.6286 7.5954ZM20.9785 4.61889C20.2279 4.17568 19.3218 3.49398 17.9648 2.46581L15.9745 0.958434C18.0923 0.320885 20.2925 -0.00205128 22.5045 9.80362e-06C24.8307 9.80362e-06 27.0757 0.353231 29.1878 1.00793L27.0329 2.56706C25.6534 3.56373 24.7338 4.22742 23.9742 4.65264C23.2529 5.05761 22.8313 5.1566 22.4729 5.1521C22.1146 5.1476 21.6953 5.03961 20.9808 4.61889M38.2514 21.0133C39.0808 21.7243 40.1808 22.4712 41.4882 23.3576L44.8016 25.603C44.422 28.3743 43.5227 31.0495 42.1509 33.4886H37.9628C36.3963 33.4886 35.0776 33.4886 33.9979 33.6146C33.4218 33.6752 32.8541 33.7989 32.3051 33.9835L28.7212 29.7314C28.8235 29.5224 28.9094 29.3057 28.9782 29.0834L30.6912 23.3981C30.7739 23.1192 30.8265 22.8379 30.849 22.5545L37.1424 19.8817C37.4669 20.2836 37.8366 20.6601 38.2514 21.0111M28.8564 37.4078C28.4034 38.4112 27.9864 39.6891 27.4905 41.219L26.3725 44.6657C23.9484 45.0875 21.4715 45.1103 19.04 44.7332L17.8995 41.219C17.4036 39.6891 16.9866 38.4112 16.5335 37.4055C16.31 36.9067 16.0414 36.4293 15.7311 35.9791L18.8642 31.8867C19.1693 31.9617 19.4833 31.9992 19.8064 31.9992H25.0967C25.4423 31.9992 25.7782 31.9565 26.1042 31.871L29.6183 36.0376C29.325 36.4706 29.0701 36.9283 28.8564 37.4055M14.7122 42.3484C14.178 40.706 13.8196 39.6081 13.45 38.7982C13.1006 38.022 12.8121 37.6733 12.5078 37.4483C12.2102 37.2278 11.809 37.0613 10.9975 36.9668C10.1388 36.8656 9.01848 36.8633 7.33019 36.8633H5.17306C7.80926 40.0404 11.2699 42.4329 15.1766 43.7793L14.7122 42.3484ZM34.3924 36.9668C35.2512 36.8656 36.3715 36.8633 38.0598 36.8633H39.8292C37.2942 39.9192 33.9947 42.2516 30.2652 43.624L30.6777 42.3484C31.2119 40.706 31.5703 39.6081 31.94 38.7982C32.2894 38.022 32.5779 37.6733 32.8822 37.4483C33.1797 37.2278 33.5809 37.0613 34.3924 36.9668ZM39.3649 15.4788C39.4956 14.5946 39.7864 13.4742 40.2214 11.8026L40.8368 9.44026C43.3946 13.0169 44.8424 17.2652 45 21.6568L43.4672 20.6196C42.0585 19.6634 41.123 19.0267 40.4581 18.4553C39.8269 17.9131 39.5722 17.5351 39.4347 17.1661C39.295 16.7904 39.2431 16.327 39.3671 15.4788" fill="#04E3AC"/>
</svg>
