<svg width="28" height="27" viewBox="0 0 28 27" fill="none" xmlns="http://www.w3.org/2000/svg">
<path d="M15.3708 0.615234C16.8708 0.619144 17.6321 0.626964 18.2894 0.64521L18.5481 0.654333C18.8468 0.66476 19.1414 0.677793 19.4974 0.693433C20.9161 0.758598 21.8841 0.977553 22.7334 1.29947C23.6135 1.63051 24.3548 2.07884 25.0961 2.80218C25.7741 3.45369 26.2987 4.24179 26.6335 5.11163C26.9628 5.94183 27.1868 6.88803 27.2535 8.27605C27.2695 8.62273 27.2828 8.91076 27.2935 9.204L27.3015 9.45685C27.3215 10.0981 27.3295 10.8423 27.3321 12.3085L27.3335 13.2807V14.9881C27.3367 15.9387 27.3265 16.8893 27.3028 17.8397L27.2948 18.0925C27.2841 18.3858 27.2708 18.6738 27.2548 19.0205C27.1881 20.4085 26.9615 21.3534 26.6335 22.1849C26.2997 23.0552 25.7749 23.8435 25.0961 24.4944C24.4294 25.1569 23.6232 25.6696 22.7334 25.9971C21.8841 26.319 20.9161 26.5379 19.4974 26.6031C19.1811 26.6177 18.8646 26.6307 18.5481 26.6422L18.2894 26.65C17.6321 26.6683 16.8708 26.6774 15.3708 26.68L14.3761 26.6813H12.6308C11.6578 26.6846 10.6848 26.6746 9.71212 26.6513L9.45345 26.6435C9.13693 26.6318 8.82048 26.6183 8.50412 26.6031C7.08545 26.5379 6.11745 26.319 5.26678 25.9971C4.37701 25.6704 3.57107 25.1575 2.90545 24.4944C2.22685 23.8431 1.70175 23.0549 1.36678 22.1849C1.03745 21.3547 0.813452 20.4085 0.746785 19.0205C0.73193 18.7112 0.718597 18.4019 0.706785 18.0925L0.700118 17.8397C0.675548 16.8893 0.664436 15.9387 0.666785 14.9881V12.3085C0.663064 11.3578 0.672842 10.4072 0.696118 9.45685L0.705452 9.204C0.716118 8.91076 0.729452 8.62273 0.745452 8.27605C0.812118 6.88803 1.03612 5.94314 1.36545 5.11163C1.70027 4.2409 2.22641 3.45256 2.90678 2.80218C3.57224 2.13941 4.37764 1.62658 5.26678 1.29947C6.11745 0.977553 7.08412 0.758598 8.50412 0.693433C8.85878 0.677793 9.15478 0.66476 9.45345 0.654333L9.71212 0.646514C10.6844 0.623357 11.6569 0.613365 12.6295 0.616538L15.3708 0.615234ZM14.0001 7.13175C12.232 7.13175 10.5363 7.81831 9.28607 9.04039C8.03583 10.2625 7.33345 11.92 7.33345 13.6483C7.33345 15.3766 8.03583 17.0341 9.28607 18.2561C10.5363 19.4782 12.232 20.1648 14.0001 20.1648C15.7682 20.1648 17.4639 19.4782 18.7142 18.2561C19.9644 17.0341 20.6668 15.3766 20.6668 13.6483C20.6668 11.92 19.9644 10.2625 18.7142 9.04039C17.4639 7.81831 15.7682 7.13175 14.0001 7.13175ZM14.0001 9.73836C14.5254 9.73827 15.0456 9.83932 15.5309 10.0357C16.0162 10.2321 16.4572 10.5201 16.8287 10.8831C17.2002 11.2461 17.4949 11.6771 17.696 12.1514C17.8971 12.6257 18.0007 13.1342 18.0008 13.6476C18.0009 14.1611 17.8975 14.6695 17.6966 15.1439C17.4956 15.6183 17.2011 16.0494 16.8297 16.4125C16.4583 16.7757 16.0174 17.0637 15.5321 17.2603C15.0469 17.4569 14.5267 17.5581 14.0015 17.5582C12.9406 17.5582 11.9232 17.1462 11.173 16.413C10.4229 15.6797 10.0015 14.6852 10.0015 13.6483C10.0015 12.6113 10.4229 11.6168 11.173 10.8835C11.9232 10.1503 12.9406 9.73836 14.0015 9.73836M21.0014 5.1768C20.5594 5.1768 20.1355 5.34844 19.8229 5.65396C19.5104 5.95948 19.3348 6.37385 19.3348 6.80593C19.3348 7.238 19.5104 7.65237 19.8229 7.95789C20.1355 8.26341 20.5594 8.43505 21.0014 8.43505C21.4435 8.43505 21.8674 8.26341 22.18 7.95789C22.4925 7.65237 22.6681 7.238 22.6681 6.80593C22.6681 6.37385 22.4925 5.95948 22.18 5.65396C21.8674 5.34844 21.4435 5.1768 21.0014 5.1768Z" fill="#F5F5F5"/>
</svg>
