<svg width="40" height="45" viewBox="0 0 40 45" fill="none" xmlns="http://www.w3.org/2000/svg">
<path d="M20 20.458C31.0469 20.458 40 15.8756 40 10.229C40 4.58245 31.0469 0 20 0C8.95312 0 0 4.58245 0 10.229C0 15.8756 8.95312 20.458 20 20.458ZM20 36.813C12.3672 36.813 5.61719 34.5601 1.35938 31.0801C0.492187 32.2305 0 33.4672 0 34.771C0 40.4176 8.95312 45 20 45C31.0469 45 40 40.4176 40 34.771C40 33.4672 39.5078 32.2305 38.6406 31.0897C34.3828 34.5601 27.6328 36.813 20 36.813ZM20 24.542C12.3672 24.542 5.61719 22.2891 1.35938 18.8091C0.492187 19.9595 0 21.1962 0 22.5C0 28.1466 8.95312 32.729 20 32.729C31.0469 32.729 40 28.1466 40 22.5C40 21.1962 39.5078 19.9595 38.6406 18.8187C34.3828 22.2891 27.6328 24.542 20 24.542Z" fill="#04E3AC"/>
</svg>
