<svg width="45" height="45" viewBox="0 0 45 45" fill="none" xmlns="http://www.w3.org/2000/svg">
<path fill-rule="evenodd" clip-rule="evenodd" d="M0 4.85847C0 2.17414 2.09571 0 4.68321 0H40.3168C42.9043 0 45 2.17414 45 4.85847V30.1545C45 32.8388 42.9043 35.013 40.3168 35.013H27.3761L29.0957 39.9981H32.1429C32.7822 39.9981 33.3954 40.2616 33.8475 40.7307C34.2996 41.1997 34.5536 41.8358 34.5536 42.4991C34.5536 43.1624 34.2996 43.7985 33.8475 44.2675C33.3954 44.7365 32.7822 45 32.1429 45H12.8571C12.2178 45 11.6046 44.7365 11.1525 44.2675C10.7004 43.7985 10.4464 43.1624 10.4464 42.4991C10.4464 41.8358 10.7004 41.1997 11.1525 40.7307C11.6046 40.2616 12.2178 39.9981 12.8571 39.9981H15.9043L17.6239 35.013H4.68321C3.44115 35.013 2.24995 34.5011 1.37168 33.59C0.493409 32.6788 0 31.443 0 30.1545L0 4.85847ZM17.775 10.7273C17.999 10.9596 18.1767 11.2353 18.298 11.5389C18.4192 11.8424 18.4816 12.1677 18.4816 12.4963C18.4816 12.8249 18.4192 13.1502 18.298 13.4537C18.1767 13.7573 17.999 14.033 17.775 14.2653L14.6571 17.4998L17.775 20.7343C18.2008 21.2084 18.4327 21.8355 18.4216 22.4834C18.4106 23.1313 18.1576 23.7495 17.7159 24.2077C17.2742 24.6659 16.6784 24.9284 16.0538 24.9398C15.4293 24.9513 14.8248 24.7108 14.3679 24.269L9.54643 19.2671C9.09498 18.7982 8.84141 18.1626 8.84141 17.4998C8.84141 16.8371 9.09498 16.2014 9.54643 15.7325L14.3679 10.7306C14.8199 10.2623 15.4326 9.99924 16.0714 9.99924C16.7103 9.99924 17.323 10.259 17.775 10.7273ZM30.6321 10.7273C30.1773 10.272 29.5682 10.0202 28.9361 10.0262C28.304 10.0322 27.6995 10.2955 27.2528 10.7594C26.806 11.2233 26.5528 11.8507 26.5476 12.5065C26.5424 13.1622 26.7857 13.7938 27.225 14.2653L30.3429 17.4998L27.225 20.7343C26.7992 21.2084 26.5673 21.8355 26.5784 22.4834C26.5894 23.1313 26.8424 23.7495 27.2841 24.2077C27.7258 24.6659 28.3216 24.9284 28.9462 24.9398C29.5707 24.9513 30.1751 24.7108 30.6321 24.269L35.4536 19.2671C35.905 18.7982 36.1586 18.1626 36.1586 17.4998C36.1586 16.8371 35.905 16.2014 35.4536 15.7325L30.6321 10.7273Z" fill="#04E3AC"/>
</svg>
