<svg width="32" height="32" viewBox="0 0 32 32" fill="none" xmlns="http://www.w3.org/2000/svg">
<path d="M10.052 29.3333C22.128 29.3333 28.734 19.5526 28.734 11.0857C28.7367 10.8107 28.7327 10.5357 28.722 10.2607C30.0077 9.35018 31.1176 8.22355 32 6.93338C30.7982 7.45002 29.5253 7.79122 28.222 7.94604C29.5952 7.14394 30.6236 5.88163 31.116 4.39389C29.8265 5.14209 28.4144 5.66659 26.942 5.94417C25.9524 4.91395 24.6428 4.23147 23.2162 4.00242C21.7895 3.77338 20.3254 4.01056 19.0507 4.67724C17.7759 5.34391 16.7616 6.40286 16.1649 7.69006C15.5682 8.97727 15.4224 10.4209 15.75 11.7973C13.1394 11.67 10.5853 11.0073 8.25366 9.85245C5.92202 8.69756 3.86495 7.07624 2.216 5.09376C1.37916 6.50747 1.1239 8.17943 1.50201 9.77037C1.88013 11.3613 2.86329 12.752 4.252 13.6604C3.21082 13.6275 2.19239 13.3542 1.28 12.8628V12.9507C1.28255 14.4314 1.80764 15.8658 2.76665 17.0119C3.72565 18.1581 5.05984 18.9456 6.544 19.2418C5.98054 19.3936 5.39846 19.4692 4.814 19.4666C4.40184 19.4708 3.99033 19.4334 3.586 19.3552C4.00479 20.6304 4.82155 21.7454 5.92167 22.5438C7.02179 23.3421 8.35004 23.7837 9.72 23.8066C7.39221 25.5914 4.51849 26.5601 1.56 26.5572C1.0386 26.5611 0.517492 26.5317 0 26.4692C3.00284 28.341 6.49053 29.3348 10.052 29.3333Z" fill="#F5F5F5"/>
</svg>
