<svg width="28" height="27" viewBox="0 0 28 27" fill="none" xmlns="http://www.w3.org/2000/svg">
<path fill-rule="evenodd" clip-rule="evenodd" d="M14.0001 0.615234C6.63608 0.615234 0.666748 6.45012 0.666748 13.6483C0.666748 16.1115 1.36675 18.4184 2.58408 20.3837L1.39475 24.3354C1.32646 24.5622 1.32197 24.8029 1.38174 25.0321C1.44151 25.2612 1.56334 25.4704 1.73443 25.6377C1.90551 25.8049 2.11952 25.924 2.35397 25.9824C2.58842 26.0408 2.83464 26.0364 3.06675 25.9697L7.10941 24.8071C9.18765 26.0363 11.571 26.6845 14.0001 26.6813C21.3641 26.6813 27.3334 20.8464 27.3334 13.6483C27.3334 6.45012 21.3641 0.615234 14.0001 0.615234ZM10.9841 16.5976C13.6814 19.2329 16.2561 19.5809 17.1654 19.6135C18.5481 19.663 19.8947 18.6308 20.4187 17.4331C20.4849 17.2841 20.5089 17.1204 20.4883 16.9593C20.4676 16.7981 20.4031 16.6453 20.3014 16.5168C19.5707 15.6045 18.5827 14.949 17.6174 14.2973C17.4159 14.1611 17.1682 14.1064 16.9263 14.1448C16.6844 14.1832 16.4672 14.3117 16.3201 14.5032L15.5201 15.6958C15.478 15.7599 15.4125 15.8058 15.3369 15.8243C15.2613 15.8427 15.1813 15.8321 15.1134 15.7948C14.5707 15.4911 13.7801 14.975 13.2121 14.4198C12.6441 13.8646 12.1481 13.1269 11.8694 12.6304C11.8349 12.5673 11.8249 12.4941 11.8413 12.4244C11.8577 12.3546 11.8995 12.2931 11.9587 12.2511L13.1907 11.3571C13.3666 11.2076 13.48 11.0002 13.5095 10.7743C13.539 10.5484 13.4825 10.3198 13.3507 10.132C12.7534 9.27699 12.0574 8.19003 11.0481 7.46931C10.9178 7.37704 10.7652 7.3195 10.6053 7.30237C10.4454 7.28523 10.2837 7.30907 10.1361 7.37156C8.90941 7.88506 7.84808 9.2014 7.89875 10.5555C7.93208 11.4444 8.28808 13.9611 10.9841 16.5976Z" fill="#F5F5F5"/>
</svg>
